<?xml version="1.0" encoding="UTF-8"?>
<svg xmlns="http://www.w3.org/2000/svg" viewBox="0 0 512 512" width="512" height="512" role="img" aria-label="Shudo open letter word">
  <title>Shudo AH Open Letter</title>
  <defs>
    <linearGradient id="ahg" x1="72" y1="440" x2="440" y2="72" gradientUnits="userSpaceOnUse">
      <stop offset="0%" stop-color="#0E7490"/>
      <stop offset="100%" stop-color="#1B4D5C"/>
    </linearGradient>
  </defs>
  <rect width="512" height="512" rx="116" fill="url(#ahg)"/>
  <rect x="148" y="88" width="216" height="240" rx="16" fill="#F0FDFA"/>
  <path fill="#ffffff" d="M96 268 H416 L368 420 C360 436 344 444 328 444 H184 C168 444 152 436 144 420 Z"/>
  <path fill="#A5F3FC" d="M96 268 L256 372 L416 268 Z"/>
  <path fill="#ffffff" opacity="0.45" d="M96 268 L256 356 L416 268 L416 292 L256 392 L96 292 Z"/>
  <path fill="#0E7490" d="M233.824 131.89600000000002Q228.64 137.872 221.656 143.48800000000003L220.504 142.40800000000002Q235.12 126.92800000000003 241.312 106.40800000000002Q244.408 107.41600000000003 247.144 108.74800000000002Q249.88 110.08000000000001 249.88 110.65600000000002Q249.88 111.08800000000002 248.296 111.66400000000002Q246.712 112.24000000000001 245.848 114.11200000000002Q251.968 116.20000000000002 255.09999999999997 117.89200000000002Q258.23199999999997 119.58400000000002 259.27599999999995 121.06000000000002Q260.32 122.53600000000002 260.32 124.37200000000001Q260.32 126.20800000000003 259.49199999999996 127.50400000000002Q258.664 128.8 257.87199999999996 128.8Q257.08 128.8 256.61199999999997 128.36800000000002Q256.144 127.93600000000002 254.416 125.23600000000002Q252.688 122.53600000000002 250.348 120.26800000000003Q248.008 118.00000000000003 244.912 115.91200000000002Q240.304 124.12000000000002 234.904 130.67200000000003H249.016L251.536 127.43200000000002Q252.04 126.71200000000002 252.47199999999998 126.71200000000002Q253.12 126.71200000000002 255.892 129.23200000000003Q258.664 131.752 258.664 132.36400000000003Q258.664 132.97600000000003 257.08 132.97600000000003H247.36V141.97600000000003H251.464L254.128 138.16000000000003Q254.704 137.36800000000002 255.064 137.36800000000002Q255.784 137.36800000000002 258.628 140.17600000000002Q261.472 142.984 261.472 143.668Q261.472 144.35200000000003 259.96 144.35200000000003H247.36V165.52Q247.36 168.90400000000002 246.13600000000002 170.27200000000002Q244.912 171.64000000000001 242.392 172.61200000000002Q239.872 173.584 239.368 173.584Q238.864 173.584 238.648 172.72000000000003Q238.072 170.34400000000002 236.92000000000002 169.264Q235.768 168.18400000000003 231.88 166.52800000000002L232.168 165.01600000000002Q236.92 166.168 238.39600000000002 166.168Q239.872 166.168 240.484 165.70000000000002Q241.096 165.23200000000003 241.096 163.288V144.35200000000003H229.0Q227.704 144.35200000000003 226.912 144.78400000000002L225.904 141.68800000000002Q226.84 141.97600000000003 228.496 141.97600000000003H241.096V132.97600000000003H236.416Q235.12 132.97600000000003 234.328 133.40800000000002ZM269.824 158.32000000000002Q261.688 166.96 248.584 173.15200000000002L247.792 171.78400000000002Q261.904 162.20800000000003 267.376 153.424Q262.84 143.12800000000001 262.12 120.23200000000003Q261.256 120.37600000000002 260.752 120.59200000000001L259.456 117.35200000000002Q260.968 117.71200000000002 263.056 117.71200000000002H276.736L279.03999999999996 114.18400000000003Q279.472 113.46400000000003 279.904 113.46400000000003Q280.48 113.46400000000003 283.68399999999997 115.84000000000003Q286.888 118.21600000000002 286.888 118.82800000000003Q286.888 119.44000000000003 285.7 120.05200000000002Q284.512 120.66400000000002 284.152 121.20400000000002Q283.792 121.74400000000003 283.504 123.18400000000003Q279.544 142.984 273.928 152.848Q280.336 161.776 290.632 166.38400000000001L290.272 167.752Q289.048 167.68 287.5 167.68Q285.952 167.68 284.44 168.22000000000003Q282.928 168.76000000000002 281.272 170.48800000000003Q280.624 171.13600000000002 280.12 171.13600000000002Q279.688 171.13600000000002 279.256 170.776Q278.824 170.41600000000003 276.70000000000005 167.93200000000002Q274.576 165.448 272.884 163.072Q271.192 160.69600000000003 269.824 158.32000000000002ZM270.616 147.30400000000003Q274.72 138.37600000000003 277.024 120.08800000000002H264.424Q264.928 136.072 270.616 147.30400000000003ZM232.96 145.64800000000002Q234.832 146.656 236.848 147.952Q238.864 149.24800000000002 239.188 149.572Q239.512 149.89600000000002 239.512 150.36400000000003Q239.512 150.83200000000002 238.288 151.192Q237.56799999999998 151.40800000000002 236.344 153.13600000000002Q231.376 160.192 228.964 163.18Q226.552 166.168 223.24 169.336L222.16 168.472Q227.632 160.84 232.96 145.64800000000002ZM249.376 146.728Q255.928 150.68800000000002 258.304 152.848Q260.68 155.008 260.68 156.592Q260.68 158.17600000000002 259.672 159.976Q258.664 161.776 257.296 161.776Q256.504 161.776 256.144 161.27200000000002Q255.784 160.76800000000003 255.352 159.616Q252.904 152.92000000000002 248.656 148.24Z"/>
  <path fill="#0E7490" d="M266.08 192.99200000000002Q265.144 217.25600000000003 259.384 229.78400000000002Q253.624 242.312 237.64 250.304L236.992 249.15200000000002Q249.51999999999998 240.51200000000003 254.236 228.09200000000004Q258.952 215.67200000000003 259.456 192.99200000000002H252.61599999999999Q250.744 192.99200000000002 249.88 193.568L248.728 190.40000000000003Q250.24 190.90400000000002 251.968 190.90400000000002H276.016L278.248 187.88000000000002Q278.896 187.01600000000002 279.328 187.01600000000002Q280.048 187.01600000000002 283.432 189.42800000000003Q286.816 191.84000000000003 286.816 192.34400000000002Q286.816 192.92000000000002 283.576 194.288Q282.928 217.25600000000003 282.46000000000004 226.47200000000004Q281.992 235.68800000000002 281.488 238.604Q280.984 241.52 279.544 243.24800000000002Q278.104 244.97600000000003 274.68399999999997 246.596Q271.264 248.216 270.688 248.216Q270.11199999999997 248.216 269.536 246.848Q268.384 244.04000000000002 266.908 242.99600000000004Q265.432 241.95200000000003 259.888 240.29600000000002L259.96 238.78400000000002Q267.448 239.936 269.96799999999996 239.936Q272.488 239.936 273.46000000000004 239.108Q274.432 238.28000000000003 275.00800000000004 236.048Q275.584 233.816 276.196 222.332Q276.808 210.848 277.168 192.99200000000002ZM242.248 225.824H233.968V231.8Q233.968 232.592 233.716 232.844Q233.464 233.096 232.24 233.70800000000003Q231.016 234.32000000000002 229.612 234.68Q228.208 235.04000000000002 227.95600000000002 235.04000000000002Q227.704 235.04000000000002 227.704 234.608L227.92 230.936Q228.064 228.848 228.064 224.60000000000002V198.824Q228.064 195.728 227.848 192.704Q231.016 193.496 234.472 195.15200000000002H241.312L243.472 192.56Q243.904 191.91200000000003 244.3 191.91200000000003Q244.696 191.91200000000003 246.496 193.28000000000003L249.232 195.36800000000002Q250.096 196.08800000000002 250.096 196.70000000000002Q250.096 197.312 247.936 198.24800000000002V220.35200000000003Q247.936 223.52 248.00799999999998 225.68Q248.07999999999998 227.84 248.07999999999998 228.12800000000001Q248.07999999999998 228.41600000000003 247.82799999999997 228.668Q247.576 228.92000000000002 246.53199999999998 229.532Q245.488 230.144 244.264 230.57600000000002Q243.04 231.008 242.644 231.008Q242.248 231.008 242.248 230.288ZM233.968 223.73600000000002H242.248V197.24H233.968Z"/>
</svg>
