<?xml version="1.0" encoding="UTF-8"?>
<svg xmlns="http://www.w3.org/2000/svg" viewBox="0 0 512 512" width="512" height="512" role="img" aria-label="Shudo Logo W Mono">
  <title>Shudo W Mono</title>
  <rect x="168" y="236" width="176" height="40" rx="20" fill="#0E7490" opacity="0.35"/>
  <circle cx="156" cy="256" r="72" fill="#0E7490"/>
  <circle cx="156" cy="236" r="22" fill="#ffffff"/>
  <path fill="#ffffff" d="M116 292c8-28 72-28 80 0 2 8-4 16-14 16h-52c-10 0-16-8-14-16z"/>
  <circle cx="356" cy="256" r="72" fill="#0E7490" opacity="0.7"/>
  <circle cx="356" cy="236" r="22" fill="#ffffff"/>
  <path fill="#ffffff" d="M316 292c8-28 72-28 80 0 2 8-4 16-14 16h-52c-10 0-16-8-14-16z"/>
</svg>
